<svg xmlns="http://www.w3.org/2000/svg" width="573" height="573" viewBox="0 0 573 573">
  <g id="Group_268" data-name="Group 268" transform="translate(-1493 -2391.897)">
    <path id="Polygon_15" data-name="Polygon 15" d="M369.55,0a86,86,0,0,1,60.811,25.189l117.45,117.45A86,86,0,0,1,573,203.45v166.1a86,86,0,0,1-25.189,60.811l-117.45,117.45A86,86,0,0,1,369.55,573H203.45a86,86,0,0,1-60.811-25.189L25.189,430.361A86,86,0,0,1,0,369.55V203.45a86,86,0,0,1,25.189-60.811l117.45-117.45A86,86,0,0,1,203.45,0Z" transform="translate(1493 2391.897)" fill="#da001a" opacity="0.03"/>
    <path id="Path_386" data-name="Path 386" d="M-20268.293-6561.5c-50.621,29.914,0,59.819,0,59.819h59.842l20.689,27.61v-68.346s-1.018-19.377-23.895-19.083S-20268.293-6561.5-20268.293-6561.5Z" transform="translate(21949.701 9121.566)" fill="#fbfbfb"/>
    <path id="Path_387" data-name="Path 387" d="M-20283.529-6548.492h49.572v132.729h-49.572Z" transform="translate(21995.896 9211.293)" fill="#fbfbfb"/>
    <path id="Path_388" data-name="Path 388" d="M-20274.469-6556.194v236.712h48.33v-184.659h63.207v-52.054Z" transform="translate(22063.059 9116.254)" fill="#fbfbfb"/>
  </g>
</svg>
